<svg width="60" height="60" viewBox="0 0 60 60" fill="none" xmlns="http://www.w3.org/2000/svg">
  <rect width="60" height="60" rx="8" fill="#FEEFC3"/>
  <path d="M30 15C22.26 15 16 21.26 16 29C16 36.74 22.26 43 30 43C37.74 43 44 36.74 44 29C44 21.26 37.74 15 30 15ZM30 25C32.21 25 34 26.79 34 29C34 31.21 32.21 33 30 33C27.79 33 26 31.21 26 29C26 26.79 27.79 25 30 25ZM30 41C26.83 41 24.02 39.54 22.17 37.28C23.19 35.38 25.4 34 28 34C28.56 34 29.08 34.12 29.59 34.28C30.03 34.42 30.47 34.5 30.92 34.5C31.37 34.5 31.81 34.42 32.25 34.28C32.76 34.12 33.28 34 33.84 34C36.44 34 38.65 35.38 39.67 37.28C37.82 39.54 35.01 41 30 41ZM39 29C39 30.11 37.1 31 35 31V29C35 28.45 35.45 28 36 28C36.55 28 37 27.55 37 27H39C39 25.9 38.1 25 37 25H35V23H39V21H34C33.45 21 33 21.45 33 22V26C33 26.55 33.45 27 34 27H36C36.55 27 37 27.45 37 28H35C33.9 28 33 28.9 33 30V32H37C38.1 32 39 31.1 39 30V29ZM25 21H21V23H23V32C23 32.55 23.45 33 24 33H28V31H25V21Z" fill="#E37400"/>
</svg> 